# xmcd
#
# Track frame offsets:
#	150
#	17122
#	34744
#	52042
#	70510
#	88893
#	107048
#	134753
#	155900
#	173544
#	193884
#	209200
#	226740
#	244735
#
# Disc length: 3591 seconds
#
# Revision: 1
# Processed by: cddbd v1.5.2PL0 Copyright (c) Steve Scherf et al.
# Submitted via: audiograbber 1.83.01
#
DISCID=cc0e050e
DTITLE=Zascha Moktan - The Bottom Line
DYEAR=2008
DGENRE=Soul
TTITLE0=Ouch! (Single Edit)
TTITLE1=Must Have Been An Angel
TTITLE2=B Cos Of U
TTITLE3=Gimme Luv
TTITLE4=Like U Do
TTITLE5=All My Life
TTITLE6=Mama
TTITLE7=Danny Don't Cry
TTITLE8=Sing Me a Song
TTITLE9=I Need a Man
TTITLE10=Whatever Comes
TTITLE11=I Know
TTITLE12=My Way
TTITLE13=Mama (Piano Mix)
EXTD=
EXTT0=
EXTT1=
EXTT2=
EXTT3=
EXTT4=
EXTT5=
EXTT6=
EXTT7=
EXTT8=
EXTT9=
EXTT10=
EXTT11=
EXTT12=
EXTT13=
PLAYORDER=
